<svg xmlns="http://www.w3.org/2000/svg" version="1.1" xmlns:xlink="http://www.w3.org/1999/xlink" xmlns:svgjs="http://svgjs.dev/svgjs" width="1500" height="303" viewBox="0 0 1500 303"><g transform="matrix(1,0,0,1,-0.9090909090909918,-0.8368376477512527)"><svg viewBox="0 0 396 80" data-background-color="#ffffff" preserveAspectRatio="xMidYMid meet" height="303" width="1500" xmlns="http://www.w3.org/2000/svg" xmlns:xlink="http://www.w3.org/1999/xlink"><g id="tight-bounds" transform="matrix(1,0,0,1,0.2400000000000091,0.22094723372970293)"><svg viewBox="0 0 395.52 79.55810553254058" height="79.55810553254058" width="395.52"><g><svg viewBox="0 0 522.7933681005245 105.15890460925834" height="79.55810553254058" width="395.52"><g transform="matrix(1,0,0,1,0,14.533538914883025)"><svg viewBox="0 0 395.52 76.0918267794923" height="76.0918267794923" width="395.52"><g id="textblocktransform"><svg viewBox="0 0 395.52 76.0918267794923" height="76.0918267794923" width="395.52" id="textblock"><g><svg viewBox="0 0 395.52 76.0918267794923" height="76.0918267794923" width="395.52"><g transform="matrix(1,0,0,1,0,0)"><svg width="395.52" viewBox="1.15 -38.2 200.88 38.650000000000006" height="76.0918267794923" data-palette-color="#202630"><path d="M15-27.4L15-23.65 9.25-23.65 9.25 0 4.7 0 4.7-23.65 1.15-23.65 1.15-27.4 4.7-27.4 4.7-29.35Q4.7-33.95 7.08-36.08 9.45-38.2 14.7-38.2L14.7-38.2 14.7-34.4Q11.7-34.4 10.48-33.23 9.25-32.05 9.25-29.35L9.25-29.35 9.25-27.4 15-27.4ZM22.65-31.85Q21.35-31.85 20.45-32.75 19.55-33.65 19.55-34.95L19.55-34.95Q19.55-36.25 20.45-37.15 21.35-38.05 22.65-38.05L22.65-38.05Q23.9-38.05 24.77-37.15 25.65-36.25 25.65-34.95L25.65-34.95Q25.65-33.65 24.77-32.75 23.9-31.85 22.65-31.85L22.65-31.85ZM20.3-27.4L24.85-27.4 24.85 0 20.3 0 20.3-27.4ZM42.3 0.45Q39.14 0.45 36.64-0.63 34.14-1.7 32.7-3.63 31.24-5.55 31.09-8.05L31.09-8.05 35.8-8.05Q35.99-6 37.72-4.7 39.45-3.4 42.24-3.4L42.24-3.4Q44.84-3.4 46.34-4.55 47.84-5.7 47.84-7.45L47.84-7.45Q47.84-9.25 46.24-10.13 44.64-11 41.3-11.85L41.3-11.85Q38.24-12.65 36.32-13.48 34.39-14.3 33.02-15.93 31.64-17.55 31.64-20.2L31.64-20.2Q31.64-22.3 32.89-24.05 34.14-25.8 36.45-26.83 38.74-27.85 41.7-27.85L41.7-27.85Q46.24-27.85 49.05-25.55 51.84-23.25 52.05-19.25L52.05-19.25 47.49-19.25Q47.34-21.4 45.77-22.7 44.2-24 41.55-24L41.55-24Q39.09-24 37.64-22.95 36.2-21.9 36.2-20.2L36.2-20.2Q36.2-18.85 37.07-17.98 37.95-17.1 39.27-16.57 40.59-16.05 42.95-15.4L42.95-15.4Q45.89-14.6 47.74-13.83 49.59-13.05 50.92-11.5 52.24-9.95 52.3-7.45L52.3-7.45Q52.3-5.2 51.05-3.4 49.8-1.6 47.52-0.58 45.24 0.45 42.3 0.45L42.3 0.45ZM72.29-27.9Q75.39-27.9 77.89-26.58 80.39-25.25 81.82-22.6 83.24-19.95 83.24-16.15L83.24-16.15 83.24 0 78.74 0 78.74-15.5Q78.74-19.6 76.69-21.78 74.64-23.95 71.09-23.95L71.09-23.95Q67.49-23.95 65.37-21.7 63.24-19.45 63.24-15.15L63.24-15.15 63.24 0 58.69 0 58.69-37 63.24-37 63.24-23.5Q64.59-25.6 66.97-26.75 69.34-27.9 72.29-27.9L72.29-27.9ZM95.24-22.3Q96.64-24.75 99.34-26.3 102.04-27.85 105.49-27.85L105.49-27.85Q109.19-27.85 112.14-26.1 115.09-24.35 116.79-21.18 118.49-18 118.49-13.8L118.49-13.8Q118.49-9.65 116.79-6.4 115.09-3.15 112.12-1.35 109.14 0.45 105.49 0.45L105.49 0.45Q101.94 0.45 99.27-1.1 96.59-2.65 95.24-5.05L95.24-5.05 95.24 0 90.69 0 90.69-37 95.24-37 95.24-22.3ZM113.84-13.8Q113.84-16.9 112.59-19.2 111.34-21.5 109.22-22.7 107.09-23.9 104.54-23.9L104.54-23.9Q102.04-23.9 99.92-22.68 97.79-21.45 96.52-19.13 95.24-16.8 95.24-13.75L95.24-13.75Q95.24-10.65 96.52-8.33 97.79-6 99.92-4.78 102.04-3.55 104.54-3.55L104.54-3.55Q107.09-3.55 109.22-4.78 111.34-6 112.59-8.33 113.84-10.65 113.84-13.8L113.84-13.8ZM136.44 0.45Q132.59 0.45 129.46-1.3 126.34-3.05 124.56-6.28 122.79-9.5 122.79-13.75L122.79-13.75Q122.79-17.95 124.61-21.18 126.44-24.4 129.59-26.13 132.74-27.85 136.64-27.85L136.64-27.85Q140.54-27.85 143.69-26.13 146.84-24.4 148.66-21.2 150.49-18 150.49-13.75L150.49-13.75Q150.49-9.5 148.61-6.28 146.74-3.05 143.54-1.3 140.34 0.45 136.44 0.45L136.44 0.45ZM136.44-3.55Q138.89-3.55 141.04-4.7 143.19-5.85 144.51-8.15 145.84-10.45 145.84-13.75L145.84-13.75Q145.84-17.05 144.54-19.35 143.24-21.65 141.14-22.78 139.04-23.9 136.59-23.9L136.59-23.9Q134.09-23.9 132.01-22.78 129.94-21.65 128.69-19.35 127.44-17.05 127.44-13.75L127.44-13.75Q127.44-10.4 128.66-8.1 129.89-5.8 131.94-4.67 133.99-3.55 136.44-3.55L136.44-3.55ZM188.49-27.4L192.99-27.4 184.44 0 179.74 0 173.14-21.75 166.54 0 161.84 0 153.24-27.4 157.89-27.4 164.19-4.4 170.99-27.4 175.64-27.4 182.29-4.35 188.49-27.4ZM197.48-37L202.03-37 202.03 0 197.48 0 197.48-37Z" opacity="1" transform="matrix(1,0,0,1,0,0)" fill="#202630" class="wordmark-text-0" data-fill-palette-color="primary" id="text-0"></path></svg></g></svg></g></svg></g></svg></g><g transform="matrix(1,0,0,1,413.4834540987954,0)"><svg viewBox="0 0 109.30991400172907 105.15890460925834" height="105.15890460925834" width="109.30991400172907"><g><svg xmlns="http://www.w3.org/2000/svg" xmlns:xlink="http://www.w3.org/1999/xlink" version="1.1" x="0" y="0" viewBox="10.5 12 79 76" enable-background="new 0 0 100 100" xml:space="preserve" height="105.15890460925834" width="109.30991400172907" class="icon-icon-0" data-fill-palette-color="accent" id="icon-0"><path d="M77.273 23.312L78.5 12h-57l1.227 11.312C15.199 30.149 10.5 39.775 10.5 50.453 10.5 71.188 28.186 88 50 88s39.5-16.812 39.5-37.547C89.5 39.775 84.801 30.149 77.273 23.312zM25 61c-1.933 0-3.5-1.567-3.5-3.5 0-1.934 1.567-3.5 3.5-3.5 1.932 0 3.5 1.566 3.5 3.5C28.5 59.433 26.932 61 25 61zM30.5 48c0-1.656 1.343-3 3-3s3 1.344 3 3-1.343 3.001-3 3.001S30.5 49.656 30.5 48zM72.5 51.817l-2 10.062 2 10.181-0.896 0.009c-2.782 0-7.198-3.33-8.407-7.803-2.952 3.212-7.253 8.613-14.173 8.613-9.846 0-14.827-10.939-14.827-10.939S39.178 51 49.023 51c6.92 0 11.221 5.4 14.173 8.611 1.209-4.472 5.625-7.802 8.407-7.802H72.5V51.817zM75.168 39.832c-1.838-0.826-3.21-2.529-5.089-3.206-1.973-0.712-4.229-0.286-5.803 1.097-1.27 1.091-2.956 2.344-4.666 2.552-1.582 0.192-3.442-1.253-4.606-2.161-2.445-1.91-5.557-2.662-8.127-0.391-1.229 1.053-3.159 2.602-4.877 2.564-1.712 0.037-3.645-1.516-4.875-2.564-2.25-1.99-5.369-1.767-7.648 0.001-1.134 0.88-2.293 1.768-3.659 2.281-1.551 0.6-2.827-0.214-4.148-1.045-0.466-0.293-0.917-0.608-1.363-0.931 1.676-3.525 4.069-6.758 7.128-9.537 1.656-1.504 2.493-3.711 2.252-5.936L29.3 19h41.4l-0.386 3.557c-0.241 2.225 0.596 4.432 2.252 5.936 3.278 2.979 5.797 6.477 7.48 10.299C78.558 39.826 76.965 40.641 75.168 39.832z" fill="#202631" data-fill-palette-color="accent"></path><circle cx="44.196" cy="60" r="3.0" fill="#202631" data-fill-palette-color="accent"></circle></svg></g></svg></g></svg></g><defs></defs></svg><rect width="395.52" height="79.55810553254058" fill="none" stroke="none" visibility="hidden"></rect></g></svg></g></svg>